<svg xmlns="http://www.w3.org/2000/svg" viewBox="0 0 1200 760" role="img" aria-label="集合写真。6人だが椅子が7脚ある。">
  <rect width="1200" height="760" fill="#ede7dc"/>
  <rect x="86" y="54" width="1028" height="650" rx="18" fill="#f8f5ef" stroke="#cbc2b4"/>
  <rect x="122" y="90" width="956" height="574" fill="#d9e2eb"/>
  <rect x="122" y="90" width="956" height="210" fill="#cfd8e4"/>
  <g opacity=".65"><circle cx="210" cy="160" r="70" fill="#fff7d8"/><circle cx="950" cy="166" r="46" fill="#fff7d8"/></g>
  <g transform="translate(160 392)" fill="none" stroke="#7d6b56" stroke-width="10">
    <path d="M0 90v-70h74v70M150 90v-70h74v70M300 90v-70h74v70M450 90v-70h74v70M600 90v-70h74v70M750 90v-70h74v70M900 90v-70h74v70"/>
  </g>
  <g transform="translate(164 260)">
    <g fill="#3d4856"><circle cx="35" cy="0" r="28"/><path d="M5 44c16-36 44-36 60 0v112H5z"/></g>
    <g transform="translate(150 0)" fill="#72607a"><circle cx="35" cy="0" r="28"/><path d="M5 44c16-36 44-36 60 0v112H5z"/></g>
    <g transform="translate(300 0)" fill="#536a62"><circle cx="35" cy="0" r="28"/><path d="M5 44c16-36 44-36 60 0v112H5z"/></g>
    <g transform="translate(600 0)" fill="#465d78"><circle cx="35" cy="0" r="28"/><path d="M5 44c16-36 44-36 60 0v112H5z"/></g>
    <g transform="translate(750 0)" fill="#725957"><circle cx="35" cy="0" r="28"/><path d="M5 44c16-36 44-36 60 0v112H5z"/></g>
    <g transform="translate(900 0)" fill="#6c704f"><circle cx="35" cy="0" r="28"/><path d="M5 44c16-36 44-36 60 0v112H5z"/></g>
  </g>
  <rect x="612" y="270" width="84" height="190" fill="#d9e2eb" opacity=".45"/>
  <text x="146" y="626" font-family="sans-serif" font-size="20" fill="#5f6870">caption: 全員で撮った最初の集合写真</text>
</svg>
