<svg xmlns="http://www.w3.org/2000/svg" viewBox="0 0 900 620" role="img" aria-label="契約書スキャン風画像">
  <defs>
    <filter id="paperNoise"><feTurbulence baseFrequency=".65" numOctaves="4" seed="11"/><feColorMatrix type="saturate" values="0"/><feComponentTransfer><feFuncA type="table" tableValues="0 .13"/></feComponentTransfer></filter>
    <linearGradient id="desk" x1="0" x2="1"><stop stop-color="#6d6257"/><stop offset="1" stop-color="#35312d"/></linearGradient>
  </defs>
  <rect width="900" height="620" fill="url(#desk)"/>
  <g transform="translate(166 34) rotate(-2.2 286 276)">
    <rect x="0" y="0" width="568" height="552" rx="6" fill="#eee8dc" filter="url(#paperNoise)"/>
    <rect x="38" y="36" width="492" height="480" fill="#f8f3e8" opacity=".92"/>
    <text x="62" y="84" font-family="serif" font-size="30" fill="#292722">契約書</text>
    <text x="62" y="118" font-family="monospace" font-size="13" fill="#777064">字幕編集業務委託 / D-0317</text>
    <path d="M62 150h400M62 190h400M62 230h400M62 270h400M62 310h400M62 350h400" stroke="#a9a096" stroke-width="2"/>
    <path d="M62 392h170M62 424h180M62 456h160" stroke="#6c6760" stroke-width="5" opacity=".5"/>
    <circle cx="432" cy="426" r="45" fill="none" stroke="#8f312d" stroke-width="8" opacity=".35"/>
    <path d="M410 426h44M432 404v44" stroke="#8f312d" stroke-width="5" opacity=".28"/>
  </g>
  <text x="30" y="590" font-family="monospace" font-size="16" fill="#e5ded3" opacity=".5">scan_preview / contract_subtitle_work.pdf</text>
</svg>
