<svg xmlns="http://www.w3.org/2000/svg" viewBox="0 0 1200 720" role="img" aria-label="3月17日0時18分の部屋。机にスマホと紙がある。木箱は見えない。">
  <rect width="1200" height="720" fill="#1f2a32"/>
  <rect x="90" y="70" width="1020" height="560" rx="18" fill="#d0cbc0"/>
  <rect x="130" y="110" width="430" height="250" fill="#abb7c1"/>
  <rect x="170" y="140" width="350" height="190" fill="#4e6478"/>
  <rect x="650" y="110" width="330" height="380" fill="#746459"/>
  <g fill="#e2ded2"><rect x="680" y="145" width="270" height="34"/><rect x="680" y="210" width="270" height="34"/><rect x="680" y="275" width="270" height="34"/><rect x="680" y="340" width="270" height="34"/></g>
  <rect x="240" y="465" width="460" height="42" fill="#674d3b"/>
  <rect x="290" y="365" width="340" height="110" fill="#81634d"/>
  <rect x="355" y="387" width="52" height="86" rx="8" fill="#1b2128"/>
  <rect x="365" y="398" width="32" height="58" fill="#8fc7d9"/>
  <rect x="455" y="392" width="118" height="70" fill="#eee9dc"/>
  <path d="M470 412h85M470 432h72M470 450h65" stroke="#8d8a82" stroke-width="4"/>
  <rect x="840" y="520" width="75" height="105" fill="#4d423a"/>
</svg>
