<svg xmlns="http://www.w3.org/2000/svg" viewBox="0 0 1200 720" role="img" aria-label="3月15日の部屋。机の上に木箱がある。">
  <rect width="1200" height="720" fill="#26313a"/>
  <rect x="90" y="70" width="1020" height="560" rx="18" fill="#d7d1c4"/>
  <rect x="130" y="110" width="430" height="250" fill="#b7c0c8"/>
  <rect x="170" y="140" width="350" height="190" fill="#617489"/>
  <path d="M170 140h350v34H170z" fill="#d9e0e7" opacity=".55"/>
  <rect x="650" y="110" width="330" height="380" fill="#7a685b"/>
  <g fill="#e9e4d7"><rect x="680" y="145" width="270" height="34"/><rect x="680" y="210" width="270" height="34"/><rect x="680" y="275" width="270" height="34"/><rect x="680" y="340" width="270" height="34"/></g>
  <rect x="240" y="465" width="460" height="42" fill="#71543f"/>
  <rect x="290" y="365" width="340" height="110" fill="#8c6b53"/>
  <rect x="338" y="385" width="120" height="74" rx="5" fill="#20272f"/>
  <rect x="360" y="398" width="76" height="42" fill="#6a8798"/>
  <rect x="510" y="390" width="76" height="52" rx="4" fill="#8b5932"/>
  <path d="M510 390l38-22 38 22" fill="#a8784a"/>
  <rect x="840" y="520" width="75" height="105" fill="#55483e"/>
  <rect x="112" y="90" width="980" height="520" fill="none" stroke="#eee9dc" stroke-width="6" opacity=".35"/>
</svg>
