<svg xmlns="http://www.w3.org/2000/svg" viewBox="0 0 1200 720" role="img" aria-label="3月16日の部屋。木箱が本棚の下段に移動している。">
  <rect width="1200" height="720" fill="#242f38"/>
  <rect x="90" y="70" width="1020" height="560" rx="18" fill="#d8d2c6"/>
  <rect x="130" y="110" width="430" height="250" fill="#bac3cb"/>
  <rect x="170" y="140" width="350" height="190" fill="#5d7186"/>
  <rect x="650" y="110" width="330" height="380" fill="#7a685b"/>
  <g fill="#e9e4d7"><rect x="680" y="145" width="270" height="34"/><rect x="680" y="210" width="270" height="34"/><rect x="680" y="275" width="270" height="34"/></g>
  <rect x="240" y="465" width="460" height="42" fill="#71543f"/>
  <rect x="290" y="365" width="340" height="110" fill="#8c6b53"/>
  <rect x="345" y="385" width="120" height="72" rx="5" fill="#20272f"/>
  <rect x="720" y="390" width="84" height="56" rx="4" fill="#8b5932"/>
  <path d="M720 390l42-22 42 22" fill="#a8784a"/>
  <rect x="840" y="520" width="75" height="105" fill="#55483e"/>
  <text x="96" y="650" font-family="sans-serif" font-size="22" fill="#efe9dd" opacity=".45">IMG_0316_room</text>
</svg>
