<svg xmlns="http://www.w3.org/2000/svg" viewBox="0 0 1200 720" role="img" aria-label="3月16日の部屋写真風。木箱が本棚の下段に移動している。">
  <defs>
    <filter id="grain"><feTurbulence type="fractalNoise" baseFrequency=".9" numOctaves="3" seed="316"/><feColorMatrix type="saturate" values=".2"/><feComponentTransfer><feFuncA type="table" tableValues="0 .11"/></feComponentTransfer></filter>
    <linearGradient id="wall" x1="0" x2="1" y1="0" y2="1"><stop stop-color="#d5cec1"/><stop offset=".58" stop-color="#bcc2c2"/><stop offset="1" stop-color="#7a776f"/></linearGradient>
    <radialGradient id="vignette" cx=".44" cy=".45" r=".73"><stop offset=".57" stop-color="transparent"/><stop offset="1" stop-color="#101216" stop-opacity=".44"/></radialGradient>
  </defs>
  <rect width="1200" height="720" fill="#202429"/>
  <g transform="translate(58 32) rotate(.7 542 326)">
    <rect x="0" y="0" width="1092" height="652" rx="24" fill="#eee9df"/>
    <rect x="28" y="28" width="1036" height="596" rx="12" fill="url(#wall)"/>
    <path d="M28 454h1036v170H28z" fill="#746e66"/>
    <path d="M130 94h205v240H130z" fill="#dcd7cc"/><path d="M157 118h151v190H157z" fill="#9eadb6"/>
    <path d="M780 72h132v356H780z" fill="#c9c3b8"/><path d="M805 92h86v316h-86z" fill="#8e9aa0"/>
    <rect x="698" y="154" width="235" height="320" rx="5" fill="#6f5842"/><path d="M710 226h211M710 302h211M710 378h211" stroke="#a78d68" stroke-width="8"/>
    <rect x="760" y="392" width="82" height="44" rx="4" fill="#8a5a30"/><path d="M760 411h82" stroke="#57381f" stroke-width="4"/><path d="M801 392v44" stroke="#57381f" stroke-width="4"/>
    <rect x="188" y="402" width="472" height="42" rx="4" fill="#46392f"/><rect x="214" y="444" width="32" height="122" fill="#322922"/><rect x="600" y="444" width="32" height="122" fill="#322922"/>
    <rect x="256" y="318" width="190" height="86" rx="8" fill="#1c2328"/><rect x="274" y="334" width="154" height="54" rx="3" fill="#303d43"/>
    <rect x="462" y="372" width="24" height="36" rx="4" fill="#242b31"/>
    <path d="M940 398c34 14 57 43 58 79" stroke="#37393a" stroke-width="10" fill="none"/><rect x="930" y="432" width="42" height="132" rx="14" fill="#394248"/>
    <text x="52" y="584" font-family="monospace" font-size="22" fill="#f4efe6" opacity=".52">IMG_0316_room / 23:48</text>
    <rect x="28" y="28" width="1036" height="596" rx="12" fill="url(#vignette)"/>
    <rect x="28" y="28" width="1036" height="596" rx="12" filter="url(#grain)"/>
  </g>
</svg>
