<svg xmlns="http://www.w3.org/2000/svg" viewBox="0 0 1200 720" role="img" aria-label="3月17日2時19分の部屋。玄関横の傘立ての奥に木箱の角が見える。">
  <rect width="1200" height="720" fill="#202b33"/>
  <rect x="90" y="70" width="1020" height="560" rx="18" fill="#cbc6bb"/>
  <rect x="130" y="110" width="430" height="250" fill="#a9b5bf"/>
  <rect x="650" y="110" width="330" height="380" fill="#725f55"/>
  <g fill="#ded8cc"><rect x="680" y="145" width="270" height="34"/><rect x="680" y="210" width="270" height="34"/><rect x="680" y="275" width="270" height="34"/><rect x="680" y="340" width="270" height="34"/></g>
  <rect x="240" y="465" width="460" height="42" fill="#654b39"/>
  <rect x="290" y="365" width="340" height="110" fill="#7a5f4c"/>
  <rect x="870" y="460" width="150" height="170" fill="#65564b"/>
  <rect x="912" y="422" width="10" height="182" rx="5" fill="#2d3b45"/>
  <rect x="944" y="410" width="10" height="195" rx="5" fill="#384851"/>
  <rect x="972" y="436" width="10" height="168" rx="5" fill="#293640"/>
  <path d="M902 610c20 18 75 18 96 0" fill="none" stroke="#2f3d45" stroke-width="10"/>
  <path d="M868 560h62v48h-62z" fill="#8b5932"/>
  <path d="M868 560l31-18 31 18" fill="#a8784a"/>
  <rect x="112" y="90" width="980" height="520" fill="none" stroke="#eee9dc" stroke-width="6" opacity=".22"/>
</svg>
