<svg xmlns="http://www.w3.org/2000/svg" viewBox="0 0 1200 720" role="img" aria-label="3月17日0時18分の部屋写真風。木箱は見えず、机にスマホと紙がある。">
  <defs>
    <filter id="grain"><feTurbulence type="fractalNoise" baseFrequency=".82" numOctaves="4" seed="31718"/><feColorMatrix type="saturate" values=".1"/><feComponentTransfer><feFuncA type="table" tableValues="0 .14"/></feComponentTransfer></filter>
    <linearGradient id="wall" x1="0" x2="1" y1="0" y2="1"><stop stop-color="#c9c4ba"/><stop offset=".58" stop-color="#aeb8ba"/><stop offset="1" stop-color="#67635d"/></linearGradient>
    <radialGradient id="vignette" cx=".43" cy=".44" r=".72"><stop offset=".52" stop-color="transparent"/><stop offset="1" stop-color="#090b0e" stop-opacity=".55"/></radialGradient>
  </defs>
  <rect width="1200" height="720" fill="#181b20"/>
  <g transform="translate(52 36) rotate(-.5 548 324)">
    <rect x="0" y="0" width="1092" height="652" rx="24" fill="#eee9df"/>
    <rect x="28" y="28" width="1036" height="596" rx="12" fill="url(#wall)"/>
    <path d="M28 454h1036v170H28z" fill="#69645e"/>
    <path d="M130 94h205v240H130z" fill="#d2cec5"/><path d="M157 118h151v190H157z" fill="#899ca5"/>
    <rect x="698" y="154" width="235" height="320" rx="5" fill="#66513d"/><path d="M710 226h211M710 302h211M710 378h211" stroke="#967d60" stroke-width="8"/>
    <rect x="188" y="402" width="472" height="42" rx="4" fill="#40342c"/><rect x="214" y="444" width="32" height="122" fill="#302820"/><rect x="600" y="444" width="32" height="122" fill="#302820"/>
    <rect x="256" y="318" width="190" height="86" rx="8" fill="#1a2026"/><rect x="274" y="334" width="154" height="54" rx="3" fill="#253137"/>
    <rect x="486" y="364" width="46" height="76" rx="8" fill="#15191e"/><rect x="494" y="374" width="30" height="50" rx="3" fill="#5b7477"/>
    <path d="M540 358l92 10 11 54-96-10z" fill="#e9e1cf" opacity=".86"/><path d="M557 377l62 7M558 393l58 6" stroke="#7c7468" stroke-width="4" opacity=".7"/>
    <path d="M940 398c34 14 57 43 58 79" stroke="#323538" stroke-width="10" fill="none"/><rect x="930" y="432" width="42" height="132" rx="14" fill="#343e44"/>
    <text x="52" y="584" font-family="monospace" font-size="22" fill="#f4efe6" opacity=".48">IMG_0317_room_0018 / 00:18</text>
    <rect x="28" y="28" width="1036" height="596" rx="12" fill="url(#vignette)"/>
    <rect x="28" y="28" width="1036" height="596" rx="12" filter="url(#grain)"/>
  </g>
</svg>
